<svg width="28" height="28" viewBox="0 0 28 28" fill="none" xmlns="http://www.w3.org/2000/svg">
<circle cx="14" cy="14" r="14" fill="black"/>
<path d="M19.3779 7.36962C19.165 7.37888 18.9696 7.44012 18.7979 7.50777C18.6393 7.57023 18.0698 7.80958 17.163 8.18993C16.2562 8.57027 15.0546 9.07457 13.7738 9.61324C11.2123 10.6906 8.33372 11.9025 6.85876 12.5232C6.80811 12.5443 6.6024 12.6073 6.37521 12.7808C6.14748 12.9547 5.89453 13.3322 5.89453 13.745C5.89453 14.078 6.06077 14.4172 6.26151 14.6114C6.46225 14.8056 6.6657 14.8964 6.83573 14.964V14.9625C7.41049 15.1915 9.1269 15.8783 9.53557 16.0419C9.68053 16.4763 10.3028 18.336 10.4509 18.8036H10.4494C10.5541 19.1346 10.6561 19.3503 10.7977 19.5304C10.8685 19.6204 10.9531 19.702 11.0567 19.7664C11.0965 19.7911 11.1406 19.8103 11.1848 19.8283C11.191 19.8309 11.1973 19.8316 11.2035 19.834L11.1863 19.8297C11.1991 19.8349 11.2106 19.8425 11.2237 19.847C11.245 19.8543 11.2598 19.8541 11.2884 19.86C11.3894 19.891 11.4902 19.9118 11.5835 19.9118C11.984 19.9118 12.2296 19.6945 12.2296 19.6945L12.2455 19.6829L13.9753 18.2193L16.0938 20.1794C16.1324 20.2341 16.4356 20.6443 17.1371 20.6443C17.5557 20.6443 17.8867 20.4371 18.0985 20.2197C18.3102 20.0024 18.4421 19.78 18.5014 19.4786L18.5029 19.4771C18.5502 19.2338 20.5781 9.05054 20.5781 9.05054L20.5738 9.06781C20.6369 8.78608 20.6556 8.51363 20.581 8.23598C20.5064 7.95833 20.3052 7.68738 20.0629 7.54519C19.8206 7.403 19.5908 7.36035 19.3779 7.36962ZM19.0872 8.9829C19.007 9.38523 17.1904 18.5118 17.0781 19.0843L14.0185 16.2535L11.9505 18.002L12.5232 15.7627C12.5232 15.7627 16.4746 11.763 16.7126 11.5302C16.9042 11.3438 16.9443 11.2784 16.9443 11.2136C16.9443 11.1274 16.8999 11.0653 16.7975 11.0653C16.7054 11.0653 16.5803 11.1536 16.514 11.1949C15.6713 11.7202 12.0821 13.7656 10.317 14.7697C10.2108 14.7271 8.61605 14.0867 7.75678 13.7436C9.28519 13.1003 11.9051 11.998 14.3452 10.9718C15.6258 10.4332 16.827 9.92846 17.7329 9.54848C18.4977 9.22773 18.8966 9.06165 19.0872 8.9829ZM17.0565 19.1893H17.058L17.0565 19.1936C17.0575 19.1889 17.0558 19.193 17.0565 19.1893Z" fill="white"/>
</svg>
