<svg width="28" height="28" viewBox="0 0 28 28" fill="none" xmlns="http://www.w3.org/2000/svg">
<path d="M14 0C6.2678 0 0 6.2678 0 14C0 21.7322 6.2678 28 14 28C21.7322 28 28 21.7322 28 14C28 6.2678 21.7322 0 14 0ZM21.721 19.6H19.8884C19.194 19.6 18.9742 18.9126 17.7632 17.5C16.7132 16.275 16.17 16.1 15.9026 16.1C15.5274 16.1 15.4 16.1924 15.4 16.7538V18.8342C15.4 19.3004 15.2796 19.6 14.105 19.6C12.166 19.6 9.975 18.2868 8.3132 16.0118C6.02 12.8744 5.6 10.1458 5.6 9.6418C5.6 9.3618 5.6882 9.1 6.223 9.1H8.0724C8.5358 9.1 8.7136 9.3058 8.8914 9.8476C9.7132 12.6 10.9382 14.7 11.5612 14.7C11.7922 14.7 11.9 14.588 11.9 13.972V11.4352C11.8286 10.1276 11.2 10.0156 11.2 9.548C11.2 9.3226 11.3484 9.1 11.634 9.1H14.8876C15.2796 9.1 15.4 9.324 15.4 9.8098V13.44C15.4 13.8502 15.7136 14 15.8368 14C16.0678 14 16.2848 14.0112 16.7118 13.5618C18.0278 12.0106 19.1702 9.66 19.1702 9.66C19.2962 9.38 19.509 9.1 19.9724 9.1H21.805C22.2152 9.1 22.3888 9.2834 22.4 9.5382C22.4042 9.6264 22.3888 9.7244 22.3566 9.8294C22.1256 10.9494 19.7568 14.2758 19.775 14.2758C19.6742 14.448 19.607 14.5712 19.6 14.7014C19.593 14.8246 19.6434 14.9534 19.775 15.1354C19.9696 15.4154 20.3952 15.9306 20.825 16.4514C21.602 17.3908 22.225 18.3764 22.3608 18.7796C22.3902 18.8888 22.4028 18.9882 22.4 19.0764C22.3902 19.4208 22.1452 19.6 21.721 19.6Z" fill="black"/>
</svg>
