<svg width="28" height="28" viewBox="0 0 28 28" fill="none" xmlns="http://www.w3.org/2000/svg">
<path d="M23.909 4.0992C21.2685 1.4574 17.7571 0.0014 14.0161 0C6.30731 0 0.0336018 6.2706 0.0308016 13.979C0.0294016 16.443 0.673434 18.8482 1.89709 20.9678L0 28L7.32656 26.2682C9.36927 27.3826 11.6682 27.9692 14.0091 27.9706H14.0147C21.7221 27.9706 27.9958 21.6986 28 13.9916C28.0028 10.255 26.5495 6.7424 23.909 4.0992ZM20.8582 18.9756C20.567 19.7918 19.1404 20.5786 18.4991 20.636C17.8579 20.6948 17.2573 20.9258 14.3059 19.7624C10.7539 18.3624 8.51102 14.721 8.33741 14.4886C8.16241 14.2548 6.91074 12.5944 6.91074 10.8752C6.91074 9.156 7.81379 8.3104 8.13441 7.9618C8.45502 7.6118 8.83304 7.525 9.06685 7.525C9.29926 7.525 9.53308 7.525 9.73609 7.5334C9.9853 7.5432 10.2611 7.5558 10.5229 8.1368C10.8337 8.8284 11.5128 10.556 11.5996 10.731C11.6864 10.906 11.7452 11.1104 11.629 11.3428C11.5128 11.5752 11.454 11.7208 11.2804 11.9252C11.1054 12.1296 10.9135 12.3802 10.7567 12.537C10.5817 12.7106 10.3997 12.901 10.6027 13.2496C10.8071 13.5996 11.5072 14.7434 12.546 15.6688C13.8817 16.8588 15.0059 17.227 15.356 17.4034C15.706 17.5784 15.909 17.549 16.1134 17.3152C16.3178 17.0828 16.987 16.296 17.2195 15.946C17.4519 15.596 17.6857 15.6548 18.0063 15.771C18.3269 15.8872 20.0448 16.7328 20.3934 16.9078C20.7434 17.0828 20.9758 17.1696 21.0626 17.3152C21.1495 17.4594 21.1495 18.1594 20.8582 18.9756Z" fill="black"/>
</svg>
